Coordinates
version=1
nRows=27
nColumns=38
inDegrees=no

Units are S.I. units (second, meters, Newtons, ...)
If the header above contains a line with 'inDegrees', this indicates whether rotational values are in degrees (yes) or radians (no).

endheader
time	pelvis_tilt	pelvis_list	pelvis_rotation	pelvis_tx	pelvis_ty	pelvis_tz	hip_flexion_r	hip_adduction_r	hip_rotation_r	knee_angle_r	ankle_angle_r	subtalar_angle_r	mtp_angle_r	hip_flexion_l	hip_adduction_l	hip_rotation_l	knee_angle_l	ankle_angle_l	subtalar_angle_l	mtp_angle_l	lumbar_extension	lumbar_bending	lumbar_rotation	arm_flex_r	arm_add_r	arm_rot_r	elbow_flex_r	pro_sup_r	wrist_flex_r	wrist_dev_r	arm_flex_l	arm_add_l	arm_rot_l	elbow_flex_l	pro_sup_l	wrist_flex_l	wrist_dev_l
2	2.88316	1.37928	-1.20932	0.755485	1.13177	0.941783	0.260056	-0.052899	-0.149923	0.339665	-0.220507	0	0	-0.36108	-0.0589288	-0.109619	0.248453	-0.0506564	0	0	-0.387276	0.13693	-0.024162	-0.0741515	-0.627502	0.87492	0.830749	0.521031	0	0	-0.0319196	-0.256671	0.375145	0.535167	1.1165	0	0
2.01	2.87222	1.37762	-1.1986	0.756582	1.13992	0.941095	0.239713	-0.0439744	-0.136978	0.272787	-0.232792	0	0	-0.368718	-0.0646239	-0.112931	0.254842	-0.0473471	0	0	-0.389539	0.139768	-0.019548	-0.0764662	-0.626611	0.869544	0.830509	0.523233	0	0	-0.0273267	-0.255541	0.37681	0.531679	1.11917	0	0
2.02	2.8626	1.37619	-1.19063	0.757829	1.1483	0.940296	0.226996	-0.036647	-0.128509	0.235063	-0.239778	0	0	-0.376041	-0.0695723	-0.117548	0.262433	-0.0445356	0	0	-0.39171	0.141841	-0.014487	-0.0783936	-0.62658	0.865777	0.831382	0.52517	0	0	-0.0249102	-0.255367	0.377892	0.531246	1.12067	0	0
2.03	2.85707	1.37665	-1.18279	0.758769	1.1572	0.93943	0.221346	-0.0330611	-0.132318	0.223382	-0.243735	0	0	-0.38106	-0.0741633	-0.116411	0.270956	-0.0426934	0	0	-0.390586	0.143719	-0.0144137	-0.0811281	-0.624595	0.861821	0.830316	0.525359	0	0	-0.0240756	-0.255385	0.378411	0.529989	1.12161	0	0
2.04	2.85373	1.37595	-1.17729	0.759742	1.16613	0.938752	0.218492	-0.0295347	-0.137297	0.229728	-0.247301	0	0	-0.387153	-0.0786161	-0.114266	0.27975	-0.0415168	0	0	-0.390613	0.145618	-0.0147079	-0.0832657	-0.623105	0.858598	0.82985	0.525373	0	0	-0.0236664	-0.255548	0.378609	0.529263	1.12196	0	0
2.05	2.84982	1.3741	-1.17355	0.760954	1.17518	0.938159	0.22035	-0.0250214	-0.144432	0.257896	-0.250262	0	0	-0.394519	-0.0829566	-0.114934	0.289513	-0.0395496	0	0	-0.392121	0.147424	-0.0129598	-0.0860604	-0.62328	0.854397	0.832104	0.526622	0	0	-0.0244243	-0.256368	0.379026	0.531001	1.12195	0	0
2.06	2.84722	1.37091	-1.17349	0.762403	1.18423	0.937671	0.223241	-0.0193648	-0.147449	0.297526	-0.249469	0	0	-0.404167	-0.0865729	-0.117095	0.297919	-0.0391076	0	0	-0.395595	0.148891	-0.00910576	-0.0888297	-0.625654	0.85073	0.837672	0.52839	0	0	-0.0262181	-0.258057	0.378973	0.536134	1.12144	0	0
2.07	2.84827	1.36567	-1.17881	0.764037	1.19318	0.937327	0.224591	-0.013006	-0.146938	0.341048	-0.24282	0	0	-0.416558	-0.0895054	-0.121078	0.305891	-0.0399997	0	0	-0.402399	0.150104	-0.0040992	-0.092007	-0.629888	0.845204	0.847292	0.529062	0	0	-0.0291669	-0.26104	0.378779	0.545389	1.11996	0	0
2.08	2.84545	1.36287	-1.17616	0.765518	1.20273	0.93698	0.223585	-0.00723085	-0.147339	0.370573	-0.234238	0	0	-0.425716	-0.0939397	-0.120574	0.314319	-0.0418919	0	0	-0.404816	0.151969	-0.00377923	-0.0956734	-0.631011	0.840031	0.852843	0.529218	0	0	-0.0331235	-0.264001	0.378348	0.551902	1.11821	0	0
2.09	2.83809	1.36218	-1.16557	0.766793	1.21278	0.936657	0.223259	-0.00241915	-0.15265	0.392065	-0.225499	0	0	-0.431446	-0.0996068	-0.117356	0.323721	-0.0448976	0	0	-0.403601	0.154748	-0.00763441	-0.0991224	-0.629933	0.835805	0.854956	0.530767	0	0	-0.0381987	-0.266895	0.377824	0.556462	1.11604	0	0
2.1	2.82524	1.36283	-1.14809	0.767944	1.22307	0.936473	0.223429	0.00188672	-0.158615	0.404909	-0.226085	0	0	-0.434065	-0.106148	-0.112268	0.335392	-0.049407	0	0	-0.399614	0.158371	-0.0141978	-0.101249	-0.626686	0.832982	0.853257	0.533464	0	0	-0.0437156	-0.268859	0.376609	0.558094	1.11376	0	0
2.11	2.81201	1.36113	-1.13409	0.769355	1.23305	0.936627	0.220022	0.0091488	-0.155657	0.410382	-0.236679	0	0	-0.438577	-0.111926	-0.110744	0.347834	-0.0542852	0	0	-0.398823	0.162067	-0.016379	-0.102241	-0.625776	0.832061	0.853618	0.535453	0	0	-0.0480759	-0.26989	0.375072	0.559771	1.11227	0	0
2.12	2.79876	1.35982	-1.11811	0.770694	1.2434	0.936807	0.213059	0.016597	-0.154264	0.409629	-0.255592	0	0	-0.441002	-0.118991	-0.109405	0.363734	-0.0616791	0	0	-0.396883	0.166295	-0.021263	-0.103298	-0.624718	0.831905	0.853954	0.538702	0	0	-0.0542201	-0.271526	0.372706	0.562542	1.11077	0	0
2.13	2.78501	1.36005	-1.09976	0.772016	1.25419	0.936907	0.204635	0.0234121	-0.153995	0.406058	-0.27534	0	0	-0.440362	-0.126808	-0.106511	0.382393	-0.070411	0	0	-0.392	0.170138	-0.0292435	-0.103984	-0.622071	0.833446	0.851936	0.543212	0	0	-0.0620765	-0.273681	0.36948	0.564933	1.10986	0	0
2.14	2.77024	1.36084	-1.08093	0.773441	1.26514	0.936959	0.197353	0.029836	-0.152413	0.406564	-0.290735	0	0	-0.437161	-0.134733	-0.104099	0.405203	-0.0794281	0	0	-0.38587	0.173586	-0.036658	-0.105558	-0.619341	0.834849	0.850061	0.5465	0	0	-0.0703565	-0.275517	0.364789	0.567076	1.10982	0	0
2.15	2.75324	1.36137	-1.06085	0.774951	1.27613	0.937043	0.192039	0.0364081	-0.149977	0.413029	-0.303631	0	0	-0.43194	-0.142921	-0.103052	0.431679	-0.0897343	0	0	-0.379849	0.177361	-0.0427929	-0.107501	-0.617787	0.836504	0.849591	0.549372	0	0	-0.0788598	-0.276902	0.359043	0.569528	1.11031	0	0
2.16	2.7311	1.36176	-1.03551	0.776542	1.28726	0.937218	0.187812	0.0439815	-0.148602	0.421609	-0.313208	0	0	-0.424018	-0.15263	-0.101315	0.462084	-0.101858	0	0	-0.37316	0.181899	-0.0487303	-0.109363	-0.616181	0.838994	0.848658	0.552234	0	0	-0.0875829	-0.278093	0.353029	0.571564	1.1115	0	0
2.17	2.70294	1.36183	-1.00509	0.778289	1.29843	0.937493	0.184472	0.0532798	-0.147923	0.430928	-0.317705	0	0	-0.413235	-0.163712	-0.0994178	0.496785	-0.116159	0	0	-0.36601	0.187235	-0.0534581	-0.111238	-0.614655	0.841806	0.847466	0.554675	0	0	-0.0963258	-0.2789	0.346782	0.573297	1.11367	0	0
2.18	2.67336	1.36052	-0.9757	0.780174	1.30942	0.937956	0.180675	0.0634473	-0.147545	0.440509	-0.317979	0	0	-0.401108	-0.17493	-0.0984632	0.535959	-0.133017	0	0	-0.360641	0.19303	-0.0550841	-0.11289	-0.614729	0.844939	0.847922	0.556669	0	0	-0.104315	-0.279127	0.340409	0.575416	1.11737	0	0
2.19	2.64488	1.35819	-0.948434	0.782234	1.3204	0.938604	0.174645	0.0739261	-0.151075	0.446543	-0.317921	0	0	-0.387316	-0.186502	-0.0967934	0.579747	-0.153032	0	0	-0.356227	0.198661	-0.0549682	-0.114477	-0.614962	0.848631	0.848387	0.558216	0	0	-0.111609	-0.279114	0.333778	0.577079	1.12266	0	0
2.2	2.62267	1.3547	-0.92951	0.7845	1.33125	0.939371	0.165407	0.0845797	-0.15621	0.448799	-0.318253	0	0	-0.372959	-0.197096	-0.0951433	0.627881	-0.176447	0	0	-0.354231	0.203278	-0.0527142	-0.116207	-0.615913	0.851601	0.850686	0.558214	0	0	-0.118967	-0.279096	0.326185	0.579988	1.12731	0	0
2.21	2.6099	1.35015	-0.922706	0.786953	1.34183	0.940275	0.153753	0.0947473	-0.15633	0.451409	-0.31665	0	0	-0.359136	-0.205077	-0.0916111	0.678191	-0.197467	0	0	-0.355429	0.206241	-0.0476644	-0.118304	-0.617545	0.852711	0.85485	0.556847	0	0	-0.125745	-0.279418	0.319892	0.583977	1.1288	0	0
2.22	2.60015	1.34545	-0.91987	0.789501	1.35229	0.941081	0.140991	0.104396	-0.154466	0.454425	-0.31178	0	0	-0.3425	-0.212437	-0.0869765	0.73433	-0.223234	0	0	-0.357638	0.208401	-0.0413599	-0.120857	-0.620147	0.853179	0.860976	0.55465	0	0	-0.132938	-0.280683	0.313682	0.590373	1.13013	0	0
2.23	2.59298	1.34121	-0.919906	0.792031	1.36257	0.941689	0.127915	0.112814	-0.153053	0.457927	-0.304096	0	0	-0.323125	-0.218718	-0.0805544	0.793636	-0.252486	0	0	-0.360181	0.209681	-0.0345793	-0.12357	-0.623725	0.853526	0.868682	0.552515	0	0	-0.14046	-0.282782	0.307438	0.598863	1.1318	0	0
2.24	2.58847	1.33712	-0.923011	0.794528	1.3726	0.942174	0.114689	0.119916	-0.153116	0.462585	-0.294425	0	0	-0.302055	-0.223375	-0.0731222	0.853653	-0.282039	0	0	-0.363872	0.210262	-0.0273113	-0.125589	-0.628245	0.854549	0.87751	0.550822	0	0	-0.147902	-0.285325	0.301344	0.608727	1.1331	0	0
2.25	2.58588	1.33261	-0.92773	0.796886	1.38234	0.942606	0.100758	0.126452	-0.155578	0.467251	-0.283887	0	0	-0.280032	-0.227128	-0.0640417	0.913531	-0.307411	0	0	-0.368884	0.210915	-0.0201987	-0.127274	-0.633223	0.855018	0.887337	0.548421	0	0	-0.154625	-0.287833	0.295702	0.618617	1.13376	0	0
2.26	2.58382	1.32733	-0.931841	0.799006	1.39181	0.943071	0.0855993	0.132992	-0.159622	0.469954	-0.274644	0	0	-0.257352	-0.230618	-0.0528859	0.972789	-0.325947	0	0	-0.374841	0.212472	-0.013391	-0.129237	-0.638245	0.854253	0.897267	0.545433	0	0	-0.160046	-0.290011	0.291384	0.627788	1.13405	0	0
